
<svg width="385" height="131" viewBox="0 0 385 131">
<g style="mix-blend-mode: source-over;" transform="matrix(0.8712916928765957,0,0,0.8044662418344155,150.59450624672286,-0.4145337268080578)">
	<path d="M21.906 92.109h56.188v-6.75H21.906v6.75zm67.097-56.962a4.792 4.792 0 0 0-2.679 8.764L75.458 60.307l-3.836-27.811c2.328-.326 4.128-2.305 4.128-4.725a4.792 4.792 0 0 0-9.582 0 4.78 4.78 0 0 0 3.095 4.467l-8.055 22.056-9.813-32.093c1.961-.6 3.396-2.402 3.396-4.561a4.792 4.792 0 0 0-9.582 0c0 2.158 1.436 3.961 3.396 4.561l-9.813 32.093-8.051-22.045c1.823-.677 3.13-2.418 3.13-4.478a4.792 4.792 0 0 0-9.582 0c0 2.406 1.778 4.379 4.09 4.721l-3.837 27.814-10.928-16.487a4.78 4.78 0 0 0 2.174-4.006 4.792 4.792 0 1 0-4.791 4.791c.406 0 .795-.066 1.172-.161l9.716 37.916h56.23l9.687-37.801c.386.101.783.171 1.201.171a4.791 4.791 0 1 0 0-9.582z"/>
</g>

			<path d="M 22.72021484375 32.0009765625Q 23.33447265625 32.9404296875 24.09326171875 33.46435546875Q 24.85205078125 33.98828125 25.97216796875 34.25927734375L 25.97216796875 34.25927734375L 25.97216796875 35Q 24.2197265625 34.8916015625 21.5458984375 34.8916015625L 21.5458984375 34.8916015625Q 19.54052734375 34.8916015625 17.73388671875 35L 17.73388671875 35L 17.73388671875 34.25927734375Q 18.60107421875 34.22314453125 19.0166015625 34.04248046875Q 19.43212890625 33.86181640625 19.43212890625 33.482421875L 19.43212890625 33.482421875Q 19.43212890625 33.13916015625 19.052734375 32.59716796875L 19.052734375 32.59716796875L 13.65087890625 24.44921875Q 12.91015625 23.31103515625 12.3681640625 22.76904296875Q 11.826171875 22.22705078125 11.257080078125 22.019287109375Q 10.68798828125 21.8115234375 9.7666015625 21.75732421875L 9.7666015625 21.75732421875L 9.7666015625 31.07958984375Q 9.7666015625 32.470703125 9.992431640625 33.10302734375Q 10.21826171875 33.7353515625 10.823486328125 33.97021484375Q 11.4287109375 34.205078125 12.765625 34.25927734375L 12.765625 34.25927734375L 12.765625 35Q 11.0673828125 34.8916015625 8.068359375 34.8916015625L 8.068359375 34.8916015625Q 4.888671875 34.8916015625 3.3349609375 35L 3.3349609375 35L 3.3349609375 34.25927734375Q 4.671875 34.205078125 5.277099609375 33.97021484375Q 5.88232421875 33.7353515625 6.108154296875 33.10302734375Q 6.333984375 32.470703125 6.333984375 31.07958984375L 6.333984375 31.07958984375L 6.333984375 12.72412109375Q 6.333984375 11.3330078125 6.108154296875 10.70068359375Q 5.88232421875 10.068359375 5.277099609375 9.83349609375Q 4.671875 9.5986328125 3.3349609375 9.54443359375L 3.3349609375 9.54443359375L 3.3349609375 8.8037109375Q 4.87060546875 8.912109375 8.068359375 8.912109375L 8.068359375 8.912109375Q 11.0673828125 8.912109375 12.765625 8.8037109375L 12.765625 8.8037109375L 12.765625 9.54443359375Q 11.4287109375 9.5986328125 10.823486328125 9.83349609375Q 10.21826171875 10.068359375 9.992431640625 10.70068359375Q 9.7666015625 11.3330078125 9.7666015625 12.72412109375L 9.7666015625 12.72412109375L 9.7666015625 21.0166015625Q 12.45849609375 20.908203125 13.994140625 18.93896484375L 13.994140625 18.93896484375L 17.53515625 14.42236328125Q 19.43212890625 12.01953125 19.43212890625 10.88134765625L 19.43212890625 10.88134765625Q 19.43212890625 9.5986328125 17.1376953125 9.54443359375L 17.1376953125 9.54443359375L 17.1376953125 8.8037109375Q 19.25146484375 8.912109375 21.38330078125 8.912109375L 21.38330078125 8.912109375Q 23.44287109375 8.912109375 24.544921875 8.8037109375L 24.544921875 8.8037109375L 24.544921875 9.54443359375Q 23.31640625 9.72509765625 22.241455078125 10.33935546875Q 21.16650390625 10.95361328125 20.1728515625 12.236328125L 20.1728515625 12.236328125L 14.138671875 19.96875L 22.72021484375 32.0009765625ZZM 31.3017578125 6.68994140625Q 31.93408203125 6.68994140625 32.47607421875 7.01513671875Q 33.01806640625 7.34033203125 33.34326171875 7.88232421875Q 33.66845703125 8.42431640625 33.66845703125 9.056640625L 33.66845703125 9.056640625Q 33.66845703125 9.68896484375 33.34326171875 10.239990234375Q 33.01806640625 10.791015625 32.47607421875 11.107177734375Q 31.93408203125 11.42333984375 31.3017578125 11.42333984375L 31.3017578125 11.42333984375Q 30.66943359375 11.42333984375 30.118408203125 11.107177734375Q 29.5673828125 10.791015625 29.251220703125 10.239990234375Q 28.93505859375 9.68896484375 28.93505859375 9.056640625L 28.93505859375 9.056640625Q 28.93505859375 8.42431640625 29.251220703125 7.88232421875Q 29.5673828125 7.34033203125 30.118408203125 7.01513671875Q 30.66943359375 6.68994140625 31.3017578125 6.68994140625L 31.3017578125 6.68994140625ZZM 33.216796875 31.5673828125Q 33.216796875 32.59716796875 33.496826171875 33.17529296875Q 33.77685546875 33.75341796875 34.382080078125 33.98828125Q 34.9873046875 34.22314453125 36.03515625 34.22314453125L 36.03515625 34.22314453125L 36.03515625 35Q 32.638671875 34.85546875 31.5546875 34.85546875L 31.5546875 34.85546875Q 30.470703125 34.85546875 27.07421875 35L 27.07421875 35L 27.07421875 34.22314453125Q 28.1220703125 34.22314453125 28.727294921875 33.98828125Q 29.33251953125 33.75341796875 29.612548828125 33.17529296875Q 29.892578125 32.59716796875 29.892578125 31.5673828125L 29.892578125 31.5673828125L 29.892578125 19.98681640625Q 29.892578125 18.2705078125 29.269287109375 17.49365234375Q 28.64599609375 16.716796875 27.07421875 16.716796875L 27.07421875 16.716796875L 27.07421875 15.93994140625Q 28.23046875 16.04833984375 29.36865234375 16.04833984375L 29.36865234375 16.04833984375Q 31.71728515625 16.04833984375 33.216796875 15.54248046875L 33.216796875 15.54248046875L 33.216796875 31.5673828125ZZM 44.056640625 19.896484375Q 44.97802734375 17.5478515625 46.631103515625 16.490966796875Q 48.2841796875 15.43408203125 50.36181640625 15.43408203125L 50.36181640625 15.43408203125Q 52.9453125 15.43408203125 54.2822265625 16.8251953125L 54.2822265625 16.8251953125Q 54.96875 17.583984375 55.266845703125 18.695068359375Q 55.56494140625 19.80615234375 55.56494140625 21.68505859375L 55.56494140625 21.68505859375L 55.56494140625 31.5673828125Q 55.56494140625 32.59716796875 55.844970703125 33.17529296875Q 56.125 33.75341796875 56.730224609375 33.98828125Q 57.33544921875 34.22314453125 58.38330078125 34.22314453125L 58.38330078125 34.22314453125L 58.38330078125 35Q 54.98681640625 34.85546875 53.93896484375 34.85546875L 53.93896484375 34.85546875Q 52.9091796875 34.85546875 49.8017578125 35L 49.8017578125 35L 49.8017578125 34.22314453125Q 50.72314453125 34.22314453125 51.238037109375 33.98828125Q 51.7529296875 33.75341796875 51.996826171875 33.17529296875Q 52.24072265625 32.59716796875 52.24072265625 31.5673828125L 52.24072265625 31.5673828125L 52.24072265625 20.8720703125Q 52.24072265625 19.53515625 52.032958984375 18.6318359375Q 51.8251953125 17.728515625 51.165771484375 17.16845703125Q 50.50634765625 16.6083984375 49.24169921875 16.6083984375L 49.24169921875 16.6083984375Q 47.72412109375 16.6083984375 46.540771484375 17.49365234375Q 45.357421875 18.37890625 44.70703125 19.923583984375Q 44.056640625 21.46826171875 44.056640625 23.34716796875L 44.056640625 23.34716796875L 44.056640625 31.5673828125Q 44.056640625 32.59716796875 44.300537109375 33.17529296875Q 44.54443359375 33.75341796875 45.068359375 33.98828125Q 45.59228515625 34.22314453125 46.513671875 34.22314453125L 46.513671875 34.22314453125L 46.513671875 35Q 43.40625 34.85546875 42.3583984375 34.85546875L 42.3583984375 34.85546875Q 41.310546875 34.85546875 37.9140625 35L 37.9140625 35L 37.9140625 34.22314453125Q 38.9619140625 34.22314453125 39.567138671875 33.98828125Q 40.17236328125 33.75341796875 40.452392578125 33.17529296875Q 40.732421875 32.59716796875 40.732421875 31.5673828125L 40.732421875 31.5673828125L 40.732421875 19.98681640625Q 40.732421875 18.2705078125 40.109130859375 17.49365234375Q 39.48583984375 16.716796875 37.9140625 16.716796875L 37.9140625 16.716796875L 37.9140625 15.93994140625Q 39.0703125 16.04833984375 40.20849609375 16.04833984375L 40.20849609375 16.04833984375Q 42.55712890625 16.04833984375 44.056640625 15.54248046875L 44.056640625 15.54248046875L 44.056640625 19.896484375ZZM 73.107421875 30.93505859375Q 75.04052734375 30.93505859375 76.241943359375 31.748046875Q 77.443359375 32.56103515625 77.443359375 34.36767578125L 77.443359375 34.36767578125Q 77.443359375 36.13818359375 76.296142578125 37.890625Q 75.14892578125 39.64306640625 72.809326171875 40.79931640625Q 70.4697265625 41.95556640625 67.09130859375 41.95556640625L 67.09130859375 41.95556640625Q 65.158203125 41.95556640625 63.450927734375 41.567138671875Q 61.74365234375 41.1787109375 60.69580078125 40.410888671875Q 59.64794921875 39.64306640625 59.64794921875 38.55908203125L 59.64794921875 38.55908203125Q 59.64794921875 37.29443359375 60.975830078125 36.111083984375Q 62.3037109375 34.927734375 64.291015625 34.04248046875L 64.291015625 34.04248046875L 64.16455078125 34.04248046875Q 62.75537109375 34.04248046875 61.608154296875 33.4462890625Q 60.4609375 32.85009765625 60.4609375 31.22412109375L 60.4609375 31.22412109375Q 60.4609375 29.95947265625 61.5087890625 28.8212890625Q 62.556640625 27.68310546875 65.0859375 26.544921875L 65.0859375 26.544921875Q 63.4599609375 25.91259765625 62.556640625 24.59375Q 61.6533203125 23.27490234375 61.6533203125 21.26953125L 61.6533203125 21.26953125Q 61.6533203125 18.3427734375 63.523193359375 16.888427734375Q 65.39306640625 15.43408203125 68.482421875 15.43408203125L 68.482421875 15.43408203125Q 69.927734375 15.43408203125 71.10205078125 15.75927734375L 71.10205078125 15.75927734375Q 71.46337890625 13.69970703125 72.40283203125 12.47119140625L 72.40283203125 12.47119140625Q 73.396484375 11.24267578125 74.93212890625 11.24267578125L 74.93212890625 11.24267578125Q 75.853515625 11.24267578125 76.368408203125 11.78466796875Q 76.88330078125 12.32666015625 76.88330078125 13.17578125L 76.88330078125 13.17578125Q 76.88330078125 13.9345703125 76.37744140625 14.4404296875Q 75.87158203125 14.9462890625 75.11279296875 14.9462890625L 75.11279296875 14.9462890625Q 74.17333984375 14.9462890625 73.7578125 14.377197265625Q 73.34228515625 13.80810546875 73.1435546875 12.61572265625L 73.1435546875 12.61572265625Q 72.6015625 13.103515625 72.14990234375 14.42236328125L 72.14990234375 14.42236328125Q 71.87890625 15.2353515625 71.7705078125 15.9580078125L 71.7705078125 15.9580078125Q 73.45068359375 16.572265625 74.39013671875 17.900146484375Q 75.32958984375 19.22802734375 75.32958984375 21.26953125L 75.32958984375 21.26953125Q 75.32958984375 23.23876953125 74.4443359375 24.548583984375Q 73.55908203125 25.8583984375 72.0234375 26.49072265625Q 70.48779296875 27.123046875 68.482421875 27.123046875L 68.482421875 27.123046875Q 66.98291015625 27.123046875 65.75439453125 26.77978515625L 65.75439453125 26.77978515625Q 64.2548828125 27.57470703125 63.450927734375 28.252197265625Q 62.64697265625 28.9296875 62.64697265625 29.70654296875L 62.64697265625 29.70654296875Q 62.64697265625 30.32080078125 63.0625 30.6279296875Q 63.47802734375 30.93505859375 64.41748046875 30.93505859375L 64.41748046875 30.93505859375L 73.107421875 30.93505859375ZZM 68.482421875 16.08447265625Q 66.83837890625 16.08447265625 65.980224609375 17.267822265625Q 65.1220703125 18.451171875 65.1220703125 21.26953125L 65.1220703125 21.26953125Q 65.1220703125 24.087890625 65.980224609375 25.271240234375Q 66.83837890625 26.45458984375 68.482421875 26.45458984375L 68.482421875 26.45458984375Q 70.14453125 26.45458984375 71.002685546875 25.2802734375Q 71.86083984375 24.10595703125 71.86083984375 21.26953125L 71.86083984375 21.26953125Q 71.86083984375 18.43310546875 71.002685546875 17.2587890625Q 70.14453125 16.08447265625 68.482421875 16.08447265625L 68.482421875 16.08447265625ZZM 65.1943359375 34.04248046875Q 64.001953125 34.65673828125 63.342529296875 35.6865234375Q 62.68310546875 36.71630859375 62.68310546875 37.7822265625L 62.68310546875 37.7822265625Q 62.68310546875 38.974609375 63.47802734375 39.76953125Q 64.27294921875 40.564453125 65.51953125 40.94384765625Q 66.76611328125 41.3232421875 68.0849609375 41.3232421875L 68.0849609375 41.3232421875Q 69.72900390625 41.3232421875 71.30078125 40.736083984375Q 72.87255859375 40.14892578125 73.88427734375 38.965576171875Q 74.89599609375 37.7822265625 74.89599609375 36.10205078125L 74.89599609375 36.10205078125Q 74.89599609375 35.37939453125 74.652099609375 34.936767578125Q 74.408203125 34.494140625 73.7939453125 34.268310546875Q 73.1796875 34.04248046875 72.07763671875 34.04248046875L 72.07763671875 34.04248046875L 65.1943359375 34.04248046875ZZM 81.14697265625 27.86376953125Q 81.41796875 30.158203125 81.923828125 31.6396484375Q 82.4296875 33.12109375 83.4775390625 33.9521484375Q 84.525390625 34.783203125 86.2958984375 34.783203125L 86.2958984375 34.783203125Q 87.10888671875 34.783203125 87.858642578125 34.430908203125Q 88.6083984375 34.07861328125 89.09619140625 33.292724609375Q 89.583984375 32.5068359375 89.583984375 31.26025390625L 89.583984375 31.26025390625Q 89.583984375 30.24853515625 89.069091796875 29.444580078125Q 88.55419921875 28.640625 87.72314453125 27.999267578125Q 86.89208984375 27.35791015625 85.392578125 26.41845703125L 85.392578125 26.41845703125Q 83.56787109375 25.26220703125 82.601318359375 24.521484375Q 81.634765625 23.78076171875 80.96630859375 22.71484375Q 80.2978515625 21.64892578125 80.2978515625 20.20361328125L 80.2978515625 20.20361328125Q 80.2978515625 18.6318359375 81.03857421875 17.556884765625Q 81.779296875 16.48193359375 83.016845703125 15.9580078125Q 84.25439453125 15.43408203125 85.77197265625 15.43408203125L 85.77197265625 15.43408203125Q 87.07275390625 15.43408203125 88.111572265625 15.849609375Q 89.150390625 16.26513671875 89.80078125 16.7890625L 89.80078125 16.7890625Q 90.1982421875 17.09619140625 90.451171875 17.09619140625L 90.451171875 17.09619140625Q 91.1015625 17.09619140625 91.2822265625 15.47021484375L 91.2822265625 15.47021484375L 92.13134765625 15.47021484375Q 91.98681640625 17.27685546875 91.98681640625 21.75732421875L 91.98681640625 21.75732421875L 91.1376953125 21.75732421875Q 90.740234375 19.318359375 89.56591796875 17.728515625Q 88.3916015625 16.138671875 86.09716796875 16.138671875L 86.09716796875 16.138671875Q 84.76025390625 16.138671875 83.9111328125 16.888427734375Q 83.06201171875 17.63818359375 83.06201171875 18.97509765625L 83.06201171875 18.97509765625Q 83.06201171875 20.2578125 83.938232421875 21.115966796875Q 84.814453125 21.97412109375 86.052001953125 22.7509765625Q 87.28955078125 23.52783203125 87.8134765625 23.87109375L 87.8134765625 23.87109375Q 89.51171875 24.97314453125 90.550537109375 25.831298828125Q 91.58935546875 26.689453125 92.230712890625 27.800537109375Q 92.8720703125 28.91162109375 92.8720703125 30.3388671875L 92.8720703125 30.3388671875Q 92.8720703125 31.98291015625 92.013916015625 33.148193359375Q 91.15576171875 34.3134765625 89.71044921875 34.918701171875Q 88.26513671875 35.52392578125 86.548828125 35.52392578125L 86.548828125 35.52392578125Q 84.90478515625 35.52392578125 83.6220703125 35L 83.6220703125 35Q 82.8994140625 34.638671875 82.1044921875 34.00634765625L 82.1044921875 34.00634765625Q 81.9599609375 33.86181640625 81.76123046875 33.86181640625L 81.76123046875 33.86181640625Q 81.21923828125 33.86181640625 81.00244140625 35.2529296875L 81.00244140625 35.2529296875L 80.1533203125 35.2529296875Q 80.2978515625 33.13916015625 80.2978515625 27.86376953125L 80.2978515625 27.86376953125L 81.14697265625 27.86376953125ZZM 106.6748046875 15.93994140625Q 108.58984375 16.04833984375 109.7822265625 16.04833984375L 109.7822265625 16.04833984375Q 111.408203125 16.04833984375 112.58251953125 15.93994140625L 112.58251953125 15.93994140625L 112.58251953125 16.6806640625Q 111.841796875 16.77099609375 111.263671875 17.34912109375Q 110.685546875 17.92724609375 110.1796875 19.2822265625L 110.1796875 19.2822265625L 104.109375 35.1806640625L 103.4951171875 35.1806640625L 96.68408203125 18.79443359375Q 96.14208984375 17.51171875 95.609130859375 17.1142578125Q 95.076171875 16.716796875 94.5341796875 16.716796875L 94.5341796875 16.716796875L 94.5341796875 15.93994140625Q 96.44921875 16.08447265625 97.7861328125 16.08447265625L 97.7861328125 16.08447265625Q 100.62255859375 16.08447265625 102.591796875 15.93994140625L 102.591796875 15.93994140625L 102.591796875 16.716796875Q 101.67041015625 16.716796875 101.155517578125 16.780029296875Q 100.640625 16.84326171875 100.306396484375 17.1142578125Q 99.97216796875 17.38525390625 99.97216796875 17.9814453125L 99.97216796875 17.9814453125Q 99.97216796875 18.595703125 100.36962890625 19.607421875L 100.36962890625 19.607421875L 104.92236328125 30.86279296875L 109.00537109375 20.16748046875Q 109.40283203125 19.15576171875 109.40283203125 18.451171875L 109.40283203125 18.451171875Q 109.40283203125 17.60205078125 108.75244140625 17.1865234375Q 108.10205078125 16.77099609375 106.6748046875 16.6806640625L 106.6748046875 16.6806640625L 106.6748046875 15.93994140625ZZM 117.984375 6.68994140625Q 118.61669921875 6.68994140625 119.15869140625 7.01513671875Q 119.70068359375 7.34033203125 120.02587890625 7.88232421875Q 120.35107421875 8.42431640625 120.35107421875 9.056640625L 120.35107421875 9.056640625Q 120.35107421875 9.68896484375 120.02587890625 10.239990234375Q 119.70068359375 10.791015625 119.15869140625 11.107177734375Q 118.61669921875 11.42333984375 117.984375 11.42333984375L 117.984375 11.42333984375Q 117.35205078125 11.42333984375 116.801025390625 11.107177734375Q 116.25 10.791015625 115.933837890625 10.239990234375Q 115.61767578125 9.68896484375 115.61767578125 9.056640625L 115.61767578125 9.056640625Q 115.61767578125 8.42431640625 115.933837890625 7.88232421875Q 116.25 7.34033203125 116.801025390625 7.01513671875Q 117.35205078125 6.68994140625 117.984375 6.68994140625L 117.984375 6.68994140625ZZM 119.8994140625 31.5673828125Q 119.8994140625 32.59716796875 120.179443359375 33.17529296875Q 120.45947265625 33.75341796875 121.064697265625 33.98828125Q 121.669921875 34.22314453125 122.7177734375 34.22314453125L 122.7177734375 34.22314453125L 122.7177734375 35Q 119.3212890625 34.85546875 118.2373046875 34.85546875L 118.2373046875 34.85546875Q 117.1533203125 34.85546875 113.7568359375 35L 113.7568359375 35L 113.7568359375 34.22314453125Q 114.8046875 34.22314453125 115.409912109375 33.98828125Q 116.01513671875 33.75341796875 116.295166015625 33.17529296875Q 116.5751953125 32.59716796875 116.5751953125 31.5673828125L 116.5751953125 31.5673828125L 116.5751953125 19.98681640625Q 116.5751953125 18.2705078125 115.951904296875 17.49365234375Q 115.32861328125 16.716796875 113.7568359375 16.716796875L 113.7568359375 16.716796875L 113.7568359375 15.93994140625Q 114.9130859375 16.04833984375 116.05126953125 16.04833984375L 116.05126953125 16.04833984375Q 118.39990234375 16.04833984375 119.8994140625 15.54248046875L 119.8994140625 15.54248046875L 119.8994140625 31.5673828125ZZM 140.65771484375 30.5556640625Q 140.22412109375 31.8564453125 139.275634765625 32.985595703125Q 138.3271484375 34.11474609375 136.908935546875 34.8193359375Q 135.49072265625 35.52392578125 133.73828125 35.52392578125L 133.73828125 35.52392578125Q 131.1005859375 35.52392578125 129.176513671875 34.322509765625Q 127.25244140625 33.12109375 126.24072265625 30.944091796875Q 125.22900390625 28.76708984375 125.22900390625 25.9306640625L 125.22900390625 25.9306640625Q 125.22900390625 22.71484375 126.2587890625 20.34814453125Q 127.28857421875 17.9814453125 129.176513671875 16.707763671875Q 131.064453125 15.43408203125 133.59375 15.43408203125L 133.59375 15.43408203125Q 136.91796875 15.43408203125 138.715576171875 17.448486328125Q 140.51318359375 19.462890625 140.51318359375 23.56396484375L 140.51318359375 23.56396484375L 128.95068359375 23.56396484375Q 128.82421875 24.521484375 128.82421875 25.9306640625L 128.82421875 25.9306640625Q 128.82421875 28.36962890625 129.628173828125 30.1943359375Q 130.43212890625 32.01904296875 131.73291015625 32.99462890625Q 133.03369140625 33.97021484375 134.47900390625 33.97021484375L 134.47900390625 33.97021484375Q 138.20068359375 33.97021484375 139.9169921875 30.2666015625L 139.9169921875 30.2666015625L 140.65771484375 30.5556640625ZZM 136.9541015625 22.859375Q 137.0263671875 21.0166015625 136.64697265625 19.48095703125Q 136.267578125 17.9453125 135.45458984375 17.0419921875Q 134.6416015625 16.138671875 133.44921875 16.138671875L 133.44921875 16.138671875Q 132.31103515625 16.138671875 131.353515625 16.870361328125Q 130.39599609375 17.60205078125 129.736572265625 19.110595703125Q 129.0771484375 20.619140625 128.896484375 22.859375L 128.896484375 22.859375L 136.9541015625 22.859375ZZM 164.5595703125 15.93994140625Q 166.5107421875 16.04833984375 167.6669921875 16.04833984375L 167.6669921875 16.04833984375Q 169.31103515625 16.04833984375 170.4853515625 15.93994140625L 170.4853515625 15.93994140625L 170.4853515625 16.6806640625Q 169.70849609375 16.77099609375 169.1123046875 17.34912109375Q 168.51611328125 17.92724609375 168.08251953125 19.2822265625L 168.08251953125 19.2822265625L 162.716796875 35.1806640625L 162.08447265625 35.1806640625L 156.212890625 20.2939453125L 150.9375 35.1806640625L 150.3232421875 35.1806640625L 144.2529296875 18.79443359375Q 143.7470703125 17.49365234375 143.205078125 17.105224609375Q 142.6630859375 16.716796875 142.10302734375 16.716796875L 142.10302734375 16.716796875L 142.10302734375 15.93994140625Q 143.65673828125 16.1748046875 145.35498046875 16.1748046875L 145.35498046875 16.1748046875Q 146.9990234375 16.1748046875 150.16064453125 15.93994140625L 150.16064453125 15.93994140625L 150.16064453125 16.716796875Q 148.9501953125 16.716796875 148.363037109375 16.861328125Q 147.77587890625 17.005859375 147.604248046875 17.67431640625Q 147.4326171875 18.3427734375 147.95654296875 19.82421875L 147.95654296875 19.82421875L 151.66015625 30.46533203125L 156.9716796875 15.79541015625L 157.82080078125 15.79541015625L 163.49365234375 30.7724609375L 166.96240234375 20.16748046875Q 167.3056640625 19.08349609375 167.3056640625 18.4873046875L 167.3056640625 18.4873046875Q 167.3056640625 17.60205078125 166.664306640625 17.1865234375Q 166.02294921875 16.77099609375 164.5595703125 16.6806640625L 164.5595703125 16.6806640625L 164.5595703125 15.93994140625ZZM 203.27587890625 33.1572265625Q 202.40869140625 34.40380859375 201.5595703125 34.9638671875Q 200.71044921875 35.52392578125 199.3193359375 35.52392578125L 199.3193359375 35.52392578125Q 197.8017578125 35.52392578125 196.826171875 34.638671875Q 195.8505859375 33.75341796875 195.3447265625 31.51318359375L 195.3447265625 31.51318359375L 194.53173828125 27.82763671875Q 194.09814453125 25.89453125 193.709716796875 24.855712890625Q 193.3212890625 23.81689453125 192.535400390625 23.193603515625Q 191.74951171875 22.5703125 190.3583984375 22.5703125L 190.3583984375 22.5703125L 186.83544921875 22.5703125L 186.83544921875 31.07958984375Q 186.83544921875 32.470703125 187.061279296875 33.10302734375Q 187.287109375 33.7353515625 187.892333984375 33.97021484375Q 188.49755859375 34.205078125 189.83447265625 34.25927734375L 189.83447265625 34.25927734375L 189.83447265625 35Q 188.13623046875 34.8916015625 185.13720703125 34.8916015625L 185.13720703125 34.8916015625Q 181.95751953125 34.8916015625 180.40380859375 35L 180.40380859375 35L 180.40380859375 34.25927734375Q 181.74072265625 34.205078125 182.345947265625 33.97021484375Q 182.951171875 33.7353515625 183.177001953125 33.10302734375Q 183.40283203125 32.470703125 183.40283203125 31.07958984375L 183.40283203125 31.07958984375L 183.40283203125 12.72412109375Q 183.40283203125 11.3330078125 183.177001953125 10.70068359375Q 182.951171875 10.068359375 182.345947265625 9.83349609375Q 181.74072265625 9.5986328125 180.40380859375 9.54443359375L 180.40380859375 9.54443359375L 180.40380859375 8.8037109375Q 181.95751953125 8.912109375 184.92041015625 8.912109375L 184.92041015625 8.912109375Q 186.36572265625 8.912109375 188.109130859375 8.8759765625Q 189.8525390625 8.83984375 190.5029296875 8.83984375L 190.5029296875 8.83984375Q 193.3935546875 8.83984375 195.39892578125 9.679931640625Q 197.404296875 10.52001953125 198.416015625 11.974365234375Q 199.427734375 13.4287109375 199.427734375 15.271484375L 199.427734375 15.271484375Q 199.427734375 16.716796875 198.750244140625 18.189208984375Q 198.07275390625 19.66162109375 196.455810546875 20.826904296875Q 194.8388671875 21.9921875 192.2373046875 22.3896484375L 192.2373046875 22.3896484375L 192.68896484375 22.4619140625Q 194.35107421875 22.73291015625 195.3447265625 23.283935546875Q 196.33837890625 23.8349609375 196.925537109375 24.79248046875Q 197.5126953125 25.75 197.8740234375 27.33984375L 197.8740234375 27.33984375L 198.79541015625 31.11572265625Q 199.0302734375 32.25390625 199.274169921875 32.895263671875Q 199.51806640625 33.53662109375 199.852294921875 33.84375Q 200.1865234375 34.15087890625 200.6923828125 34.15087890625L 200.6923828125 34.15087890625Q 201.306640625 34.15087890625 201.7041015625 33.834716796875Q 202.1015625 33.5185546875 202.7158203125 32.74169921875L 202.7158203125 32.74169921875L 203.27587890625 33.1572265625ZZM 189.32861328125 21.82958984375Q 191.82177734375 21.82958984375 193.23095703125 21.03466796875Q 194.64013671875 20.23974609375 195.18212890625 18.90283203125Q 195.72412109375 17.56591796875 195.72412109375 15.68701171875L 195.72412109375 15.68701171875Q 195.72412109375 12.65185546875 194.27880859375 11.09814453125Q 192.83349609375 9.54443359375 189.58154296875 9.54443359375L 189.58154296875 9.54443359375Q 188.42529296875 9.54443359375 187.84716796875 9.806396484375Q 187.26904296875 10.068359375 187.05224609375 10.73681640625Q 186.83544921875 11.4052734375 186.83544921875 12.72412109375L 186.83544921875 12.72412109375L 186.83544921875 21.82958984375L 189.32861328125 21.82958984375ZZM 219.951171875 30.5556640625Q 219.517578125 31.8564453125 218.569091796875 32.985595703125Q 217.62060546875 34.11474609375 216.202392578125 34.8193359375Q 214.7841796875 35.52392578125 213.03173828125 35.52392578125L 213.03173828125 35.52392578125Q 210.39404296875 35.52392578125 208.469970703125 34.322509765625Q 206.5458984375 33.12109375 205.5341796875 30.944091796875Q 204.5224609375 28.76708984375 204.5224609375 25.9306640625L 204.5224609375 25.9306640625Q 204.5224609375 22.71484375 205.55224609375 20.34814453125Q 206.58203125 17.9814453125 208.469970703125 16.707763671875Q 210.35791015625 15.43408203125 212.88720703125 15.43408203125L 212.88720703125 15.43408203125Q 216.21142578125 15.43408203125 218.009033203125 17.448486328125Q 219.806640625 19.462890625 219.806640625 23.56396484375L 219.806640625 23.56396484375L 208.244140625 23.56396484375Q 208.11767578125 24.521484375 208.11767578125 25.9306640625L 208.11767578125 25.9306640625Q 208.11767578125 28.36962890625 208.921630859375 30.1943359375Q 209.7255859375 32.01904296875 211.0263671875 32.99462890625Q 212.3271484375 33.97021484375 213.7724609375 33.97021484375L 213.7724609375 33.97021484375Q 217.494140625 33.97021484375 219.21044921875 30.2666015625L 219.21044921875 30.2666015625L 219.951171875 30.5556640625ZZM 216.24755859375 22.859375Q 216.31982421875 21.0166015625 215.9404296875 19.48095703125Q 215.56103515625 17.9453125 214.748046875 17.0419921875Q 213.93505859375 16.138671875 212.74267578125 16.138671875L 212.74267578125 16.138671875Q 211.6044921875 16.138671875 210.64697265625 16.870361328125Q 209.689453125 17.60205078125 209.030029296875 19.110595703125Q 208.37060546875 20.619140625 208.18994140625 22.859375L 208.18994140625 22.859375L 216.24755859375 22.859375ZZM 233.37451171875 19.896484375Q 233.37451171875 17.74658203125 232.480224609375 16.960693359375Q 231.5859375 16.1748046875 229.94189453125 16.1748046875L 229.94189453125 16.1748046875Q 227.322265625 16.1748046875 226.2744140625 17.49365234375L 226.2744140625 17.49365234375Q 227.01513671875 17.67431640625 227.511962890625 18.279541015625Q 228.0087890625 18.884765625 228.0087890625 19.751953125L 228.0087890625 19.751953125Q 228.0087890625 20.69140625 227.421630859375 21.224365234375Q 226.83447265625 21.75732421875 225.8408203125 21.75732421875L 225.8408203125 21.75732421875Q 224.9013671875 21.75732421875 224.368408203125 21.125Q 223.83544921875 20.49267578125 223.83544921875 19.462890625L 223.83544921875 19.462890625Q 223.83544921875 18.017578125 225.56982421875 16.8251953125L 225.56982421875 16.8251953125Q 226.47314453125 16.22900390625 227.801025390625 15.83154296875Q 229.12890625 15.43408203125 230.7548828125 15.43408203125L 230.7548828125 15.43408203125Q 232.2724609375 15.43408203125 233.4287109375 15.804443359375Q 234.5849609375 16.1748046875 235.2353515625 16.8251953125L 235.2353515625 16.8251953125Q 236.08447265625 17.6923828125 236.400634765625 18.839599609375Q 236.716796875 19.98681640625 236.716796875 22.01025390625L 236.716796875 22.01025390625L 236.716796875 32.2900390625Q 236.716796875 33.21142578125 236.978759765625 33.626953125Q 237.24072265625 34.04248046875 237.85498046875 34.04248046875L 237.85498046875 34.04248046875Q 238.306640625 34.04248046875 238.68603515625 33.84375Q 239.0654296875 33.64501953125 239.51708984375 33.265625L 239.51708984375 33.265625L 239.9326171875 33.89794921875Q 239.2822265625 34.3857421875 238.8486328125 34.65673828125Q 238.4150390625 34.927734375 237.85498046875 35.09033203125Q 237.294921875 35.2529296875 236.55419921875 35.2529296875L 236.55419921875 35.2529296875Q 234.765625 35.2529296875 234.070068359375 34.358642578125Q 233.37451171875 33.46435546875 233.37451171875 31.96484375L 233.37451171875 31.96484375Q 232.29052734375 33.75341796875 230.77294921875 34.503173828125Q 229.25537109375 35.2529296875 227.68359375 35.2529296875L 227.68359375 35.2529296875Q 226.40087890625 35.2529296875 225.3349609375 34.810302734375Q 224.26904296875 34.36767578125 223.627685546875 33.437255859375Q 222.986328125 32.5068359375 222.986328125 31.11572265625L 222.986328125 31.11572265625Q 222.986328125 29.70654296875 223.6728515625 28.712890625Q 224.359375 27.71923828125 225.60595703125 26.969482421875Q 226.8525390625 26.2197265625 228.9482421875 25.33447265625L 228.9482421875 25.33447265625Q 229.3095703125 25.18994140625 230.71875 24.61181640625Q 232.1279296875 24.03369140625 232.751220703125 23.45556640625Q 233.37451171875 22.87744140625 233.37451171875 22.19091796875L 233.37451171875 22.19091796875L 233.37451171875 19.896484375ZZM 233.37451171875 23.70849609375Q 233.103515625 24.1240234375 232.47119140625 24.4853515625Q 231.8388671875 24.8466796875 229.83349609375 25.822265625L 229.83349609375 25.822265625Q 228.767578125 26.328125 228.02685546875 26.861083984375Q 227.2861328125 27.39404296875 226.76220703125 28.29736328125Q 226.23828125 29.20068359375 226.23828125 30.51953125L 226.23828125 30.51953125Q 226.23828125 32.12744140625 227.05126953125 32.949462890625Q 227.8642578125 33.771484375 229.201171875 33.771484375L 229.201171875 33.771484375Q 231.658203125 33.771484375 233.37451171875 30.97119140625L 233.37451171875 30.97119140625L 233.37451171875 23.70849609375ZZM 246.92431640625 31.5673828125Q 246.92431640625 32.59716796875 247.204345703125 33.17529296875Q 247.484375 33.75341796875 248.089599609375 33.98828125Q 248.69482421875 34.22314453125 249.74267578125 34.22314453125L 249.74267578125 34.22314453125L 249.74267578125 35Q 246.34619140625 34.85546875 245.26220703125 34.85546875L 245.26220703125 34.85546875Q 244.17822265625 34.85546875 240.78173828125 35L 240.78173828125 35L 240.78173828125 34.22314453125Q 241.82958984375 34.22314453125 242.434814453125 33.98828125Q 243.0400390625 33.75341796875 243.320068359375 33.17529296875Q 243.60009765625 32.59716796875 243.60009765625 31.5673828125L 243.60009765625 31.5673828125L 243.60009765625 10.4296875Q 243.60009765625 8.71337890625 242.976806640625 7.945556640625Q 242.353515625 7.177734375 240.78173828125 7.177734375L 240.78173828125 7.177734375L 240.78173828125 6.40087890625Q 241.93798828125 6.50927734375 243.076171875 6.50927734375L 243.076171875 6.50927734375Q 245.4609375 6.50927734375 246.92431640625 5.9853515625L 246.92431640625 5.9853515625L 246.92431640625 31.5673828125ZZM 280.38330078125 27.5927734375Q 280.27490234375 28.58642578125 280.27490234375 30.2666015625L 280.27490234375 30.2666015625Q 280.27490234375 32.3623046875 280.52783203125 35L 280.52783203125 35Q 278.0166015625 34.8916015625 272.0546875 34.8916015625L 272.0546875 34.8916015625Q 264.95458984375 34.8916015625 261.3232421875 35L 261.3232421875 35L 261.3232421875 34.25927734375Q 262.66015625 34.205078125 263.265380859375 33.97021484375Q 263.87060546875 33.7353515625 264.096435546875 33.10302734375Q 264.322265625 32.470703125 264.322265625 31.07958984375L 264.322265625 31.07958984375L 264.322265625 12.72412109375Q 264.322265625 11.3330078125 264.096435546875 10.70068359375Q 263.87060546875 10.068359375 263.265380859375 9.83349609375Q 262.66015625 9.5986328125 261.3232421875 9.54443359375L 261.3232421875 9.54443359375L 261.3232421875 8.8037109375Q 264.95458984375 8.912109375 272.0546875 8.912109375L 272.0546875 8.912109375Q 277.49267578125 8.912109375 279.787109375 8.8037109375L 279.787109375 8.8037109375Q 279.5341796875 11.224609375 279.5341796875 13.17578125L 279.5341796875 13.17578125Q 279.5341796875 14.62109375 279.642578125 15.47021484375L 279.642578125 15.47021484375L 278.79345703125 15.47021484375Q 278.5224609375 13.0673828125 278.115966796875 11.89306640625Q 277.70947265625 10.71875 276.742919921875 10.185791015625Q 275.7763671875 9.65283203125 273.8251953125 9.65283203125L 273.8251953125 9.65283203125L 270.75390625 9.65283203125Q 269.4169921875 9.65283203125 268.811767578125 9.86962890625Q 268.20654296875 10.08642578125 267.980712890625 10.709716796875Q 267.7548828125 11.3330078125 267.7548828125 12.72412109375L 267.7548828125 12.72412109375L 267.7548828125 21.4501953125L 270.2119140625 21.4501953125Q 272.07275390625 21.4501953125 272.68701171875 20.339111328125Q 273.30126953125 19.22802734375 273.44580078125 18.07177734375Q 273.59033203125 16.91552734375 273.64453125 16.572265625L 273.64453125 16.572265625L 274.49365234375 16.572265625Q 274.3671875 18.39697265625 274.3671875 20.05908203125L 274.3671875 20.05908203125L 274.38525390625 21.82958984375Q 274.38525390625 23.70849609375 274.60205078125 27.0869140625L 274.60205078125 27.0869140625L 273.7529296875 27.0869140625Q 273.716796875 26.833984375 273.545166015625 25.29833984375Q 273.37353515625 23.7626953125 272.54248046875 22.976806640625Q 271.71142578125 22.19091796875 270.2119140625 22.19091796875L 270.2119140625 22.19091796875L 267.7548828125 22.19091796875L 267.7548828125 31.07958984375Q 267.7548828125 32.470703125 267.980712890625 33.093994140625Q 268.20654296875 33.71728515625 268.811767578125 33.93408203125Q 269.4169921875 34.15087890625 270.75390625 34.15087890625L 270.75390625 34.15087890625L 273.4638671875 34.15087890625Q 275.7763671875 34.15087890625 276.977783203125 33.53662109375Q 278.17919921875 32.92236328125 278.712158203125 31.5673828125Q 279.2451171875 30.21240234375 279.5341796875 27.5927734375L 279.5341796875 27.5927734375L 280.38330078125 27.5927734375ZZM 285.33349609375 27.86376953125Q 285.6044921875 30.158203125 286.1103515625 31.6396484375Q 286.6162109375 33.12109375 287.6640625 33.9521484375Q 288.7119140625 34.783203125 290.482421875 34.783203125L 290.482421875 34.783203125Q 291.29541015625 34.783203125 292.045166015625 34.430908203125Q 292.794921875 34.07861328125 293.28271484375 33.292724609375Q 293.7705078125 32.5068359375 293.7705078125 31.26025390625L 293.7705078125 31.26025390625Q 293.7705078125 30.24853515625 293.255615234375 29.444580078125Q 292.74072265625 28.640625 291.90966796875 27.999267578125Q 291.07861328125 27.35791015625 289.5791015625 26.41845703125L 289.5791015625 26.41845703125Q 287.75439453125 25.26220703125 286.787841796875 24.521484375Q 285.8212890625 23.78076171875 285.15283203125 22.71484375Q 284.484375 21.64892578125 284.484375 20.20361328125L 284.484375 20.20361328125Q 284.484375 18.6318359375 285.22509765625 17.556884765625Q 285.9658203125 16.48193359375 287.203369140625 15.9580078125Q 288.44091796875 15.43408203125 289.95849609375 15.43408203125L 289.95849609375 15.43408203125Q 291.25927734375 15.43408203125 292.298095703125 15.849609375Q 293.3369140625 16.26513671875 293.9873046875 16.7890625L 293.9873046875 16.7890625Q 294.384765625 17.09619140625 294.6376953125 17.09619140625L 294.6376953125 17.09619140625Q 295.2880859375 17.09619140625 295.46875 15.47021484375L 295.46875 15.47021484375L 296.31787109375 15.47021484375Q 296.17333984375 17.27685546875 296.17333984375 21.75732421875L 296.17333984375 21.75732421875L 295.32421875 21.75732421875Q 294.9267578125 19.318359375 293.75244140625 17.728515625Q 292.578125 16.138671875 290.28369140625 16.138671875L 290.28369140625 16.138671875Q 288.94677734375 16.138671875 288.09765625 16.888427734375Q 287.24853515625 17.63818359375 287.24853515625 18.97509765625L 287.24853515625 18.97509765625Q 287.24853515625 20.2578125 288.124755859375 21.115966796875Q 289.0009765625 21.97412109375 290.238525390625 22.7509765625Q 291.47607421875 23.52783203125 292 23.87109375L 292 23.87109375Q 293.6982421875 24.97314453125 294.737060546875 25.831298828125Q 295.77587890625 26.689453125 296.417236328125 27.800537109375Q 297.05859375 28.91162109375 297.05859375 30.3388671875L 297.05859375 30.3388671875Q 297.05859375 31.98291015625 296.200439453125 33.148193359375Q 295.34228515625 34.3134765625 293.89697265625 34.918701171875Q 292.45166015625 35.52392578125 290.7353515625 35.52392578125L 290.7353515625 35.52392578125Q 289.09130859375 35.52392578125 287.80859375 35L 287.80859375 35Q 287.0859375 34.638671875 286.291015625 34.00634765625L 286.291015625 34.00634765625Q 286.146484375 33.86181640625 285.94775390625 33.86181640625L 285.94775390625 33.86181640625Q 285.40576171875 33.86181640625 285.18896484375 35.2529296875L 285.18896484375 35.2529296875L 284.33984375 35.2529296875Q 284.484375 33.13916015625 284.484375 27.86376953125L 284.484375 27.86376953125L 285.33349609375 27.86376953125ZZM 305.82080078125 15.97607421875L 311.294921875 15.97607421875L 311.294921875 16.716796875L 305.82080078125 16.716796875L 305.82080078125 31.04345703125Q 305.82080078125 32.7236328125 306.4169921875 33.455322265625Q 307.01318359375 34.18701171875 308.1875 34.18701171875L 308.1875 34.18701171875Q 309.34375 34.18701171875 310.15673828125 33.265625Q 310.9697265625 32.34423828125 311.52978515625 30.23046875L 311.52978515625 30.23046875L 312.25244140625 30.4111328125Q 311.34912109375 35.52392578125 307.44677734375 35.52392578125L 307.44677734375 35.52392578125Q 306.2001953125 35.52392578125 305.38720703125 35.225830078125Q 304.57421875 34.927734375 303.94189453125 34.29541015625L 303.94189453125 34.29541015625Q 303.14697265625 33.482421875 302.82177734375 32.299072265625Q 302.49658203125 31.11572265625 302.49658203125 29.1103515625L 302.49658203125 29.1103515625L 302.49658203125 16.716796875L 298.9375 16.716796875L 298.9375 15.97607421875L 302.49658203125 15.97607421875L 302.49658203125 10.3212890625Q 304.57421875 10.26708984375 305.82080078125 9.79736328125L 305.82080078125 9.79736328125L 305.82080078125 15.97607421875ZZM 323.724609375 19.896484375Q 323.724609375 17.74658203125 322.830322265625 16.960693359375Q 321.93603515625 16.1748046875 320.2919921875 16.1748046875L 320.2919921875 16.1748046875Q 317.67236328125 16.1748046875 316.62451171875 17.49365234375L 316.62451171875 17.49365234375Q 317.365234375 17.67431640625 317.862060546875 18.279541015625Q 318.35888671875 18.884765625 318.35888671875 19.751953125L 318.35888671875 19.751953125Q 318.35888671875 20.69140625 317.771728515625 21.224365234375Q 317.1845703125 21.75732421875 316.19091796875 21.75732421875L 316.19091796875 21.75732421875Q 315.25146484375 21.75732421875 314.718505859375 21.125Q 314.185546875 20.49267578125 314.185546875 19.462890625L 314.185546875 19.462890625Q 314.185546875 18.017578125 315.919921875 16.8251953125L 315.919921875 16.8251953125Q 316.8232421875 16.22900390625 318.151123046875 15.83154296875Q 319.47900390625 15.43408203125 321.10498046875 15.43408203125L 321.10498046875 15.43408203125Q 322.62255859375 15.43408203125 323.77880859375 15.804443359375Q 324.93505859375 16.1748046875 325.58544921875 16.8251953125L 325.58544921875 16.8251953125Q 326.4345703125 17.6923828125 326.750732421875 18.839599609375Q 327.06689453125 19.98681640625 327.06689453125 22.01025390625L 327.06689453125 22.01025390625L 327.06689453125 32.2900390625Q 327.06689453125 33.21142578125 327.328857421875 33.626953125Q 327.5908203125 34.04248046875 328.205078125 34.04248046875L 328.205078125 34.04248046875Q 328.65673828125 34.04248046875 329.0361328125 33.84375Q 329.41552734375 33.64501953125 329.8671875 33.265625L 329.8671875 33.265625L 330.28271484375 33.89794921875Q 329.63232421875 34.3857421875 329.19873046875 34.65673828125Q 328.76513671875 34.927734375 328.205078125 35.09033203125Q 327.64501953125 35.2529296875 326.904296875 35.2529296875L 326.904296875 35.2529296875Q 325.11572265625 35.2529296875 324.420166015625 34.358642578125Q 323.724609375 33.46435546875 323.724609375 31.96484375L 323.724609375 31.96484375Q 322.640625 33.75341796875 321.123046875 34.503173828125Q 319.60546875 35.2529296875 318.03369140625 35.2529296875L 318.03369140625 35.2529296875Q 316.7509765625 35.2529296875 315.68505859375 34.810302734375Q 314.619140625 34.36767578125 313.977783203125 33.437255859375Q 313.33642578125 32.5068359375 313.33642578125 31.11572265625L 313.33642578125 31.11572265625Q 313.33642578125 29.70654296875 314.02294921875 28.712890625Q 314.70947265625 27.71923828125 315.9560546875 26.969482421875Q 317.20263671875 26.2197265625 319.29833984375 25.33447265625L 319.29833984375 25.33447265625Q 319.65966796875 25.18994140625 321.06884765625 24.61181640625Q 322.47802734375 24.03369140625 323.101318359375 23.45556640625Q 323.724609375 22.87744140625 323.724609375 22.19091796875L 323.724609375 22.19091796875L 323.724609375 19.896484375ZZM 323.724609375 23.70849609375Q 323.45361328125 24.1240234375 322.8212890625 24.4853515625Q 322.18896484375 24.8466796875 320.18359375 25.822265625L 320.18359375 25.822265625Q 319.11767578125 26.328125 318.376953125 26.861083984375Q 317.63623046875 27.39404296875 317.1123046875 28.29736328125Q 316.58837890625 29.20068359375 316.58837890625 30.51953125L 316.58837890625 30.51953125Q 316.58837890625 32.12744140625 317.4013671875 32.949462890625Q 318.21435546875 33.771484375 319.55126953125 33.771484375L 319.55126953125 33.771484375Q 322.00830078125 33.771484375 323.724609375 30.97119140625L 323.724609375 30.97119140625L 323.724609375 23.70849609375ZZM 337.3466796875 15.97607421875L 342.82080078125 15.97607421875L 342.82080078125 16.716796875L 337.3466796875 16.716796875L 337.3466796875 31.04345703125Q 337.3466796875 32.7236328125 337.94287109375 33.455322265625Q 338.5390625 34.18701171875 339.71337890625 34.18701171875L 339.71337890625 34.18701171875Q 340.86962890625 34.18701171875 341.6826171875 33.265625Q 342.49560546875 32.34423828125 343.0556640625 30.23046875L 343.0556640625 30.23046875L 343.7783203125 30.4111328125Q 342.875 35.52392578125 338.97265625 35.52392578125L 338.97265625 35.52392578125Q 337.72607421875 35.52392578125 336.9130859375 35.225830078125Q 336.10009765625 34.927734375 335.4677734375 34.29541015625L 335.4677734375 34.29541015625Q 334.6728515625 33.482421875 334.34765625 32.299072265625Q 334.0224609375 31.11572265625 334.0224609375 29.1103515625L 334.0224609375 29.1103515625L 334.0224609375 16.716796875L 330.46337890625 16.716796875L 330.46337890625 15.97607421875L 334.0224609375 15.97607421875L 334.0224609375 10.3212890625Q 336.10009765625 10.26708984375 337.3466796875 9.79736328125L 337.3466796875 9.79736328125L 337.3466796875 15.97607421875ZZM 360.5439453125 30.5556640625Q 360.1103515625 31.8564453125 359.161865234375 32.985595703125Q 358.21337890625 34.11474609375 356.795166015625 34.8193359375Q 355.376953125 35.52392578125 353.62451171875 35.52392578125L 353.62451171875 35.52392578125Q 350.98681640625 35.52392578125 349.062744140625 34.322509765625Q 347.138671875 33.12109375 346.126953125 30.944091796875Q 345.115234375 28.76708984375 345.115234375 25.9306640625L 345.115234375 25.9306640625Q 345.115234375 22.71484375 346.14501953125 20.34814453125Q 347.1748046875 17.9814453125 349.062744140625 16.707763671875Q 350.95068359375 15.43408203125 353.47998046875 15.43408203125L 353.47998046875 15.43408203125Q 356.80419921875 15.43408203125 358.601806640625 17.448486328125Q 360.3994140625 19.462890625 360.3994140625 23.56396484375L 360.3994140625 23.56396484375L 348.8369140625 23.56396484375Q 348.71044921875 24.521484375 348.71044921875 25.9306640625L 348.71044921875 25.9306640625Q 348.71044921875 28.36962890625 349.514404296875 30.1943359375Q 350.318359375 32.01904296875 351.619140625 32.99462890625Q 352.919921875 33.97021484375 354.365234375 33.97021484375L 354.365234375 33.97021484375Q 358.0869140625 33.97021484375 359.80322265625 30.2666015625L 359.80322265625 30.2666015625L 360.5439453125 30.5556640625ZZM 356.84033203125 22.859375Q 356.91259765625 21.0166015625 356.533203125 19.48095703125Q 356.15380859375 17.9453125 355.3408203125 17.0419921875Q 354.52783203125 16.138671875 353.33544921875 16.138671875L 353.33544921875 16.138671875Q 352.197265625 16.138671875 351.23974609375 16.870361328125Q 350.2822265625 17.60205078125 349.622802734375 19.110595703125Q 348.96337890625 20.619140625 348.78271484375 22.859375L 348.78271484375 22.859375L 356.84033203125 22.859375Z" style="fill: currentColor; stroke: currentColor; stroke-width: 2; stroke-linecap: round; paint-order: stroke fill markers;" />
</svg>